# xmcd
#
# Track frame offsets: 
#        150
#        46003
#        106666
#        118782
#        129838
#        154640
#        177992
#
# Disc length: 2846 seconds
#
# Revision: 0
# Processed by: cddbd v1.5.2PL0 Copyright (c) Steve Scherf et al.
# Submitted via: ExactAudioCopy v0.99pb5
#
DISCID=4a0b1c07
DTITLE=Eric Clapton  - Flawless Disc 06 (MVR-360) 7-11-97
DYEAR=1900
DGENRE=
TTITLE0=1st Song-Tango
TTITLE1=Put It Where You Want It
TTITLE2=Jerry Roll
TTITLE3=In A Sentimental Mood
TTITLE4=Layla
TTITLE5=Right Next Door
TTITLE6=You Gotta Change
EXTD=
EXTT0=
EXTT1=
EXTT2=
EXTT3=
EXTT4=
EXTT5=
EXTT6=
PLAYORDER=
